<svg width="16" height="16" viewBox="0 0 16 16" fill="none" xmlns="http://www.w3.org/2000/svg">
<path d="M12.6667 3.33329H11.282C11.058 2.06463 10.1133 1.01729 8.83267 0.687959C8.48 0.596626 8.11333 0.811293 8.02067 1.16729C7.92867 1.52396 8.144 1.88729 8.50067 1.97863C9.38333 2.20596 10 3.00263 10 3.91596V11.3333H2.66667C1.93133 11.3333 1.33333 10.7353 1.33333 9.99996V7.33329H3C3.36867 7.33329 3.66667 7.03463 3.66667 6.66663C3.66667 6.29863 3.36867 5.99996 3 5.99996H1.33333C0.598 5.99996 0 6.59796 0 7.33329V9.99996C0 11.2533 0.869333 12.3073 2.03667 12.5913C2.01267 12.7253 2 12.862 2 13C2 14.2866 3.04667 15.3333 4.33333 15.3333C5.62 15.3333 6.66667 14.2866 6.66667 13C6.66667 12.8873 6.658 12.7766 6.642 12.6666H9.358C9.342 12.7766 9.33333 12.8873 9.33333 13C9.33333 14.2866 10.38 15.3333 11.6667 15.3333C12.9533 15.3333 14 14.2866 14 13C14 12.862 13.9873 12.7253 13.9633 12.5913C15.1307 12.3073 16 11.2533 16 9.99996V6.66663C16 4.82863 14.5047 3.33329 12.6667 3.33329ZM14.6667 6.66663V7.33329H11.3333V4.66663H12.6667C13.7693 4.66663 14.6667 5.56396 14.6667 6.66663ZM5.33333 13C5.33333 13.5513 4.88467 14 4.33333 14C3.782 14 3.33333 13.5513 3.33333 13C3.33333 12.874 3.358 12.7626 3.394 12.6666H5.27333C5.30933 12.7626 5.334 12.874 5.334 13H5.33333ZM11.6667 14C11.1153 14 10.6667 13.5513 10.6667 13C10.6667 12.874 10.6913 12.7626 10.7273 12.6666H12.6067C12.6427 12.7626 12.6673 12.874 12.6673 13C12.6673 13.5513 12.218 14 11.6667 14ZM13.3333 11.3333H11.3333V8.66663H14.6667V9.99996C14.6667 10.7353 14.0687 11.3333 13.3333 11.3333ZM0 1.33329C0 0.965293 0.298 0.666626 0.666667 0.666626H6.10267C6.47133 0.666626 6.76933 0.965293 6.76933 1.33329C6.76933 1.70129 6.47133 1.99996 6.10267 1.99996H0.666667C0.298 1.99996 0 1.70129 0 1.33329ZM0 3.99996C0 3.63196 0.298 3.33329 0.666667 3.33329H4.76933C5.138 3.33329 5.436 3.63196 5.436 3.99996C5.436 4.36796 5.138 4.66663 4.76933 4.66663H0.666667C0.298 4.66663 0 4.36796 0 3.99996Z" fill="white"/>
</svg>
