<svg width="24" height="24" viewBox="0 0 24 24" fill="none" xmlns="http://www.w3.org/2000/svg">
<g clip-path="url(#clip0_2_745)">
<path d="M13.6203 23.9531H9.76938C9.12616 23.9531 8.60292 23.4309 8.60292 22.7889V14.12H6.35622C5.713 14.12 5.18976 13.5976 5.18976 12.9558V9.24115C5.18976 8.59918 5.713 8.07697 6.35622 8.07697H8.60292V6.2168C8.60292 4.37238 9.18322 2.80316 10.2809 1.67908C11.3835 0.549866 12.9244 -0.046875 14.737 -0.046875L17.6739 -0.0421143C18.316 -0.0410156 18.8384 0.481201 18.8384 1.12207V4.57105C18.8384 5.21301 18.3153 5.73523 17.6723 5.73523L15.6949 5.73596C15.0919 5.73596 14.9383 5.85663 14.9055 5.89362C14.8513 5.95496 14.7869 6.12836 14.7869 6.60718V8.07678H17.5237C17.7297 8.07678 17.9293 8.1275 18.1008 8.22308C18.4709 8.42944 18.701 8.81964 18.701 9.24133L18.6995 12.956C18.6995 13.5976 18.1762 14.1198 17.533 14.1198H14.7869V22.7889C14.7869 23.4309 14.2635 23.9531 13.6203 23.9531ZM10.0127 22.5461H13.377V13.4901C13.377 13.0615 13.7265 12.7128 14.1558 12.7128H17.2897L17.291 9.48395H14.1556C13.7263 9.48395 13.377 9.13532 13.377 8.70667V6.60718C13.377 6.0575 13.433 5.43237 13.8487 4.96252C14.351 4.39453 15.1427 4.32898 15.6945 4.32898L17.4286 4.32825V1.3645L14.7359 1.36011C11.8229 1.36011 10.0127 3.22119 10.0127 6.2168V8.70667C10.0127 9.13513 9.66334 9.48395 9.23403 9.48395H6.59949V12.7128H9.23403C9.66334 12.7128 10.0127 13.0615 10.0127 13.4901V22.5461Z" fill="#F62F61"/>
</g>
<defs>
<clipPath id="clip0_2_745">
<rect width="24" height="24" fill="white"/>
</clipPath>
</defs>
</svg>
