<svg width="18" height="15" viewBox="0 0 18 15" fill="none" xmlns="http://www.w3.org/2000/svg">
<path d="M2.70899 8.59033L8.50284 14.033C8.64799 14.1694 8.72056 14.2376 8.79948 14.2721C8.92736 14.3282 9.07284 14.3282 9.20072 14.2721C9.27964 14.2376 9.35221 14.1694 9.49736 14.033L15.2912 8.59034C16.9214 7.05899 17.1193 4.539 15.7483 2.77189L15.4905 2.43961C13.8503 0.325647 10.5581 0.680175 9.40566 3.09487C9.24286 3.43596 8.75734 3.43596 8.59455 3.09487C7.44208 0.680175 4.14987 0.325648 2.50972 2.43962L2.25192 2.77189C0.880891 4.539 1.07885 7.05899 2.70899 8.59033Z" stroke="#413F3D"/>
</svg>
