<svg width="24" height="24" viewBox="0 0 24 24" fill="none" xmlns="http://www.w3.org/2000/svg">
<mask id="mask0_2_748" style="mask-type:luminance" maskUnits="userSpaceOnUse" x="0" y="0" width="24" height="24">
<path d="M0 1.90735e-06H24V24H0V1.90735e-06Z" fill="white"/>
</mask>
<g mask="url(#mask0_2_748)">
<path d="M23.062 12C23.0597 12.9865 23.0486 13.9731 23.0351 14.9596C23.0187 16.1498 23.0004 17.3405 22.7019 18.5103C22.3889 19.7371 21.7715 20.795 20.8111 21.5783C19.7989 22.4036 18.5756 22.8375 17.2552 22.9178C15.504 23.0243 13.752 23.0664 12 23.0622C10.248 23.0664 8.49602 23.0243 6.74482 22.9178C5.42444 22.8375 4.2011 22.4036 3.18897 21.5783C2.2285 20.795 1.61116 19.7371 1.29813 18.5103C0.99963 17.3405 0.981255 16.1498 0.964989 14.9596C0.951489 13.9731 0.940285 12.9865 0.937988 12C0.940285 11.0135 0.951489 10.0269 0.964989 9.04041C0.981255 7.85021 0.99963 6.65949 1.29813 5.48968C1.61116 4.26296 2.2285 3.20499 3.18897 2.42176C4.2011 1.59638 5.42444 1.16255 6.74482 1.08226C8.49602 0.975758 10.248 0.933664 12 0.937789C13.752 0.933664 15.504 0.975758 17.2552 1.08226C18.5756 1.16255 19.7989 1.59638 20.8111 2.42176C21.7715 3.20499 22.3889 4.26296 22.7019 5.48968C23.0004 6.65949 23.0187 7.85021 23.0351 9.04041C23.0486 10.0269 23.0597 11.0135 23.062 12Z" stroke="#F62F61" stroke-width="1.4" stroke-miterlimit="10"/>
<path d="M16.875 12C16.875 14.7183 14.6714 16.9219 11.9531 16.9219C9.23484 16.9219 7.03125 14.7183 7.03125 12C7.03125 9.28172 9.23484 7.07812 11.9531 7.07812C14.6714 7.07812 16.875 9.28172 16.875 12Z" stroke="#F62F61" stroke-width="1.4" stroke-miterlimit="10"/>
<path d="M19.875 5.67188C19.875 6.4485 19.2454 7.07812 18.4688 7.07812C17.6921 7.07812 17.0625 6.4485 17.0625 5.67188C17.0625 4.89525 17.6921 4.26562 18.4688 4.26562C19.2454 4.26562 19.875 4.89525 19.875 5.67188Z" fill="#F62F61"/>
</g>
</svg>
