<svg width="16" height="16" viewBox="0 0 16 16" fill="none" xmlns="http://www.w3.org/2000/svg">
<path d="M16 8C16 12.4113 12.4113 16 8 16C5.29667 16 2.80333 14.6273 1.336 12.42L1.33333 13.3333C1.33333 13.702 1.03467 14 0.666667 14C0.298667 14 0 13.702 0 13.3333V11.3393C0 10.6013 0.600667 10 1.33867 10H3.33333C3.70133 10 4 10.298 4 10.6667C4 11.0353 3.70133 11.3333 3.33333 11.3333H2.242C3.426 13.3733 5.61 14.6667 8 14.6667C11.676 14.6667 14.6667 11.676 14.6667 8C14.6667 7.63133 14.9647 7.33333 15.3333 7.33333C15.702 7.33333 16 7.63133 16 8ZM15.3333 2C14.9647 2 14.6667 2.298 14.6667 2.66667L14.664 3.57C13.2047 1.36 10.738 0 8 0C3.58867 0 0 3.58867 0 8C0 8.36867 0.298667 8.66667 0.666667 8.66667C1.03467 8.66667 1.33333 8.36867 1.33333 8C1.33333 4.324 4.324 1.33333 8 1.33333C10.4267 1.33333 12.6 2.614 13.7773 4.66667H12.6667C12.298 4.66667 12 4.96467 12 5.33333C12 5.702 12.298 6 12.6667 6H14.6667C15.4033 6 16 5.40333 16 4.66667V2.66667C16 2.298 15.702 2 15.3333 2ZM6.66667 11.3333C5.564 11.3333 4.66667 10.436 4.66667 9.33333V6.66667C4.66667 5.564 5.564 4.66667 6.66667 4.66667H9.33333C10.436 4.66667 11.3333 5.564 11.3333 6.66667V9.33333C11.3333 10.436 10.436 11.3333 9.33333 11.3333H6.66667ZM6.66667 10H9.33333C9.70133 10 10 9.70133 10 9.33333V6.66667C10 6.29867 9.70133 6 9.33333 6H6.66667C6.29933 6 6 6.29867 6 6.66667V9.33333C6 9.70133 6.29933 10 6.66667 10ZM7.66667 8H8.33333C8.702 8 9 7.702 9 7.33333C9 6.96467 8.702 6.66667 8.33333 6.66667H7.66667C7.29867 6.66667 7 6.96467 7 7.33333C7 7.702 7.29867 8 7.66667 8Z" fill="white"/>
</svg>
