<svg width="20" height="20" viewBox="0 0 20 20" fill="none" xmlns="http://www.w3.org/2000/svg">
<path d="M6.66669 10L6.66669 6.66667C6.66669 4.82572 8.15907 3.33333 10 3.33333V3.33333C11.841 3.33333 13.3334 4.82572 13.3334 6.66667L13.3334 10" stroke="#413F3D" stroke-linecap="round"/>
<path d="M3.02768 11.1678C3.17276 9.42692 3.24529 8.55647 3.81938 8.02824C4.39347 7.5 5.26693 7.5 7.01386 7.5H12.9861C14.7331 7.5 15.6065 7.5 16.1806 8.02824C16.7547 8.55647 16.8272 9.42692 16.9723 11.1678L17.3195 15.3339C17.404 16.3474 17.4462 16.8542 17.1491 17.1771C16.852 17.5 16.3435 17.5 15.3264 17.5H4.6736C3.65655 17.5 3.14802 17.5 2.85092 17.1771C2.55382 16.8542 2.59605 16.3474 2.68051 15.3339L3.02768 11.1678Z" stroke="#413F3D"/>
</svg>
