<svg width="16" height="16" viewBox="0 0 16 16" fill="none" xmlns="http://www.w3.org/2000/svg">
<path d="M14.78 1.21338L14.08 0.606709C13.2733 -0.199958 11.9667 -0.199958 11.16 0.606709C11.14 0.626709 9.90667 2.23338 9.90667 2.23338C9.14667 3.03338 9.14667 4.29338 9.90667 5.08671L10.68 6.06004C9.70667 8.26671 8.19334 9.78671 6.06 10.6934L5.08667 9.91338C4.29334 9.14671 3.02667 9.14671 2.23334 9.91338C2.23334 9.91338 0.626669 11.1467 0.606669 11.1667C-0.199998 11.9734 -0.199998 13.28 0.573336 14.0534L1.24 14.82C2.00667 15.5867 3.04 16.0067 4.16 16.0067C9.25334 16.0067 16 9.25338 16 4.16671C16 3.05338 15.58 2.01338 14.78 1.22004V1.21338ZM4.16 14.6667C3.4 14.6667 2.7 14.3867 2.22 13.9L1.55334 13.1334C1.28 12.86 1.26667 12.4134 1.52667 12.1267C1.52667 12.1267 3.12 10.9 3.14 10.88C3.41334 10.6067 3.89334 10.6067 4.17334 10.88C4.19334 10.9 5.53334 11.9734 5.53334 11.9734C5.72 12.12 5.96667 12.16 6.18667 12.0734C8.94667 11.02 10.9267 9.04671 12.0667 6.20004C12.1533 5.98004 12.12 5.72671 11.9667 5.53338C11.9667 5.53338 10.8933 4.18671 10.88 4.17338C10.5933 3.88671 10.5933 3.42671 10.88 3.14004C10.9 3.12004 12.1267 1.52671 12.1267 1.52671C12.4133 1.26671 12.86 1.27338 13.1667 1.58004L13.8667 2.18671C14.38 2.70004 14.6667 3.40004 14.6667 4.16004C14.6667 8.80004 8.15334 14.6667 4.16 14.6667Z" fill="white"/>
</svg>
