<svg width="16" height="16" viewBox="0 0 16 16" fill="none" xmlns="http://www.w3.org/2000/svg">
<g clip-path="url(#clip0_2_707)">
<path d="M14.78 1.21335L14.08 0.606679C13.2733 -0.199988 11.9667 -0.199988 11.16 0.606679C11.14 0.626679 9.90667 2.23335 9.90667 2.23335C9.14667 3.03335 9.14667 4.29335 9.90667 5.08668L10.68 6.06001C9.70667 8.26668 8.19334 9.78668 6.06 10.6933L5.08667 9.91335C4.29334 9.14668 3.02667 9.14668 2.23334 9.91335C2.23334 9.91335 0.626669 11.1467 0.606669 11.1667C-0.199998 11.9733 -0.199998 13.28 0.573336 14.0533L1.24 14.82C2.00667 15.5867 3.04 16.0067 4.16 16.0067C9.25334 16.0067 16 9.25335 16 4.16668C16 3.05335 15.58 2.01335 14.78 1.22001V1.21335ZM4.16 14.6667C3.4 14.6667 2.7 14.3867 2.22 13.9L1.55334 13.1333C1.28 12.86 1.26667 12.4133 1.52667 12.1267C1.52667 12.1267 3.12 10.9 3.14 10.88C3.41334 10.6067 3.89334 10.6067 4.17334 10.88C4.19334 10.9 5.53334 11.9733 5.53334 11.9733C5.72 12.12 5.96667 12.16 6.18667 12.0733C8.94667 11.02 10.9267 9.04668 12.0667 6.20001C12.1533 5.98001 12.12 5.72668 11.9667 5.53335C11.9667 5.53335 10.8933 4.18668 10.88 4.17335C10.5933 3.88668 10.5933 3.42668 10.88 3.14001C10.9 3.12001 12.1267 1.52668 12.1267 1.52668C12.4133 1.26668 12.86 1.27335 13.1667 1.58001L13.8667 2.18668C14.38 2.70001 14.6667 3.40001 14.6667 4.16001C14.6667 8.80001 8.15334 14.6667 4.16 14.6667Z" fill="#F62F61"/>
</g>
<defs>
<clipPath id="clip0_2_707">
<rect width="16" height="16" fill="white"/>
</clipPath>
</defs>
</svg>
