<svg width="24" height="24" viewBox="0 0 24 24" fill="none" xmlns="http://www.w3.org/2000/svg">
<mask id="mask0_2_761" style="mask-type:luminance" maskUnits="userSpaceOnUse" x="0" y="0" width="24" height="24">
<path d="M0 1.90735e-06H24V24H0V1.90735e-06Z" fill="white"/>
</mask>
<g mask="url(#mask0_2_761)">
<path d="M21.7906 5.97497C18.879 5.97497 16.5187 3.61467 16.5187 0.703127H12.7531V16.1422C12.7531 18.0139 11.2358 19.5312 9.36398 19.5312C7.4923 19.5312 5.97501 18.0139 5.97501 16.1422C5.97501 14.2705 7.4923 12.7531 9.36398 12.7531V8.98749C5.4127 8.98749 2.20935 12.1908 2.20935 16.1422C2.20935 20.0936 5.4127 23.2969 9.36398 23.2969C13.3156 23.2969 16.5187 20.0936 16.5187 16.1422V8.04399C18.0026 9.11147 19.8231 9.74063 21.7906 9.74063V5.97497Z" stroke="#F62F61" stroke-width="1.4" stroke-miterlimit="10" stroke-linecap="round" stroke-linejoin="round"/>
</g>
</svg>
