<svg width="237" height="31" viewBox="0 0 237 31" fill="none" xmlns="http://www.w3.org/2000/svg">
<g id="Group 1">
<path id="Vector" d="M174.571 8.2876C167.771 8.2876 162.97 13.0917 162.97 19.6312C162.97 26.1708 167.771 30.9748 174.571 30.9748C179.585 30.9748 183.507 28.359 185.166 24.385H181.986C180.591 26.875 177.977 28.271 174.571 28.271C169.732 28.271 166.376 25.0892 165.987 20.587H186.083V19.6312C186.083 13.0917 181.383 8.2876 174.571 8.2876ZM166.075 17.9712C166.728 13.733 170.084 10.9915 174.583 10.9915C178.944 10.9915 182.35 13.6073 183.042 17.9712H166.075Z" fill="#0068FF"/>
<path id="Vector_2" d="M200.21 10.9915C204.131 10.9915 207.147 13.0917 208.316 16.3111H211.282C210.013 11.5071 205.79 8.2876 200.21 8.2876C193.41 8.2876 188.609 13.0917 188.609 19.6312C188.609 26.1708 193.41 30.9748 200.21 30.9748C205.79 30.9748 210.025 27.7428 211.282 22.9513H208.316C207.135 26.1834 204.131 28.271 200.21 28.271C195.069 28.271 191.575 24.6113 191.575 19.6312C191.588 14.6637 195.069 10.9915 200.21 10.9915Z" fill="#0068FF"/>
<path id="Vector_3" d="M46.9041 20.1092C46.9041 25.3911 43.8501 28.271 39.1873 28.271C34.7382 28.271 31.747 25.6426 31.4956 20.8134V18.9019C31.4831 18.6755 31.4705 18.4365 31.4705 18.1976V18.0718V16.1603C31.3197 12.9785 30.2765 10.5388 28.5673 8.85358L28.5547 8.841V10.7526V16.2609V18.1725V20.1092C28.5547 20.3858 28.5673 20.6499 28.5798 20.914C28.6301 22.0836 28.806 23.1652 29.0951 24.1335C29.1077 24.1587 29.1077 24.1838 29.1203 24.1964C29.158 24.3222 29.2082 24.4605 29.2459 24.5862C29.2585 24.624 29.2711 24.6617 29.2836 24.6994C29.3213 24.8126 29.3716 24.9258 29.4093 25.039C29.4345 25.0893 29.447 25.1396 29.4722 25.1899C29.5099 25.2905 29.5601 25.3911 29.6104 25.4917C29.6355 25.542 29.6607 25.6049 29.6858 25.6552C29.7361 25.7558 29.7738 25.8439 29.8241 25.9319C29.8492 25.9948 29.8869 26.0451 29.912 26.0954C29.9623 26.1834 30 26.2714 30.0503 26.3469C30.088 26.4098 30.1257 26.4601 30.1508 26.523C30.2011 26.5984 30.2514 26.6865 30.3017 26.7619C30.3394 26.8248 30.3771 26.8751 30.4273 26.938C30.4776 27.0134 30.5279 27.0763 30.5782 27.1518C30.6284 27.2147 30.6661 27.2775 30.7164 27.3278C30.7667 27.3907 30.8169 27.4536 30.8672 27.5291C30.9175 27.5919 30.9678 27.6548 31.018 27.7051C31.0683 27.768 31.1186 27.8183 31.1689 27.8812C31.2317 27.9441 31.2945 28.0069 31.3574 28.0698C31.4076 28.1201 31.4579 28.1704 31.4956 28.2207C33.3557 30.0317 36.0201 30.9623 39.1873 30.9623C45.5593 30.9623 49.8325 27.2524 49.8325 20.0966V8.841H46.9167V20.1092H46.9041Z" fill="#07012D"/>
<path id="Vector_4" d="M75.3584 18.9144C75.3081 17.7448 75.1321 16.6633 74.8431 15.6949C74.8305 15.6697 74.8305 15.6446 74.8179 15.632C74.7802 15.5063 74.73 15.3679 74.6923 15.2422C74.6797 15.2044 74.6671 15.1667 74.6545 15.129C74.6168 15.0158 74.5666 14.9026 74.5289 14.7894C74.5037 14.7391 74.4912 14.6888 74.466 14.6385C74.4283 14.5379 74.3781 14.4373 74.3278 14.3367C74.3026 14.2864 74.2775 14.2235 74.2524 14.1732C74.2021 14.0852 74.1644 13.9845 74.1141 13.8965C74.089 13.8336 74.0513 13.7833 74.0261 13.733C73.9759 13.645 73.9382 13.557 73.8879 13.4815C73.8502 13.4186 73.8125 13.3683 73.7874 13.3054C73.7371 13.23 73.6868 13.142 73.6365 13.0665C73.5988 13.0036 73.5611 12.9533 73.5109 12.8904C73.4606 12.815 73.4103 12.7521 73.36 12.6766C73.3098 12.6138 73.2721 12.5635 73.2218 12.5006C73.1715 12.4377 73.1212 12.3748 73.071 12.2994C73.0207 12.2365 72.9704 12.1736 72.9202 12.1233C72.8699 12.0604 72.8196 12.0101 72.7693 11.9472C72.7065 11.8843 72.6437 11.8215 72.5934 11.7586C72.5431 11.7083 72.4928 11.658 72.4426 11.6077C70.5825 9.79672 67.918 8.86609 64.7509 8.86609C58.3789 8.86609 54.1057 12.576 54.1057 19.7318V30.9874H57.0215V19.7318C57.0215 14.4121 60.0756 11.5699 64.7383 11.5699C69.1874 11.5699 72.1786 14.1606 72.43 19.0276V20.9391C72.4426 21.1655 72.4551 21.4044 72.4551 21.6434V21.7691V23.6807C72.6059 26.8625 73.6491 29.3022 75.3584 30.9874L75.3709 31V29.0884V23.5801V21.6685V19.7444C75.3709 19.4426 75.3709 19.1785 75.3584 18.9144Z" fill="#07012D"/>
<path id="Vector_5" d="M83.3769 9.23084V7.31928C83.226 4.13753 82.1955 1.68519 80.4736 0V30.9749H83.3894V19.3797V17.4682V11.9599V10.0483C83.3769 9.82192 83.3643 9.58297 83.3643 9.34403V9.23084H83.3769Z" fill="#07012D"/>
<g id="Group">
<path id="Vector_6" d="M90.7668 0.779724C89.4974 0.779724 88.5422 1.73551 88.5422 3.00569C88.5422 4.27588 89.4974 5.23166 90.7668 5.23166C92.0362 5.23166 92.9913 4.27588 92.9913 3.00569C92.9913 1.74808 92.0362 0.779724 90.7668 0.779724Z" fill="#07012D"/>
<path id="Vector_7" d="M92.2374 18.7761V18.6503V16.7387C92.0866 13.557 91.0435 11.1172 89.3216 9.43204L89.3091 9.41946V11.331V16.8393V18.7509C89.3091 18.8264 89.3216 18.9144 89.3216 18.9899V30.9749H92.2374V28.7866L92.25 28.7992V26.9002V21.3919V19.4803C92.25 19.4049 92.2374 19.3168 92.2374 19.2414C92.2374 19.0779 92.2374 18.927 92.2374 18.7761Z" fill="#07012D"/>
</g>
<path id="Vector_8" d="M121.546 8.85358C118.014 8.85358 115.136 10.5136 113.779 13.6954C112.384 10.5136 109.506 8.85358 106.012 8.85358C101.035 8.85358 97.2896 11.9473 97.2896 18.3611V30.9749H100.205V18.3737C100.205 13.796 102.732 11.57 106.225 11.57C109.719 11.57 112.334 13.884 112.334 18.3737V30.9875H115.249V18.3737C115.249 13.884 117.826 11.57 121.307 11.57C124.625 11.57 127.063 13.5822 127.302 17.6946V19.015V20.9266C127.315 21.153 127.327 21.3919 127.327 21.6309V21.7566V23.6682C127.478 26.8374 128.509 29.2897 130.231 30.9623C130.243 30.9749 130.243 30.9749 130.256 30.9875V29.0759V23.5676V21.656V18.3737C130.268 11.9599 126.523 8.85358 121.546 8.85358Z" fill="#07012D"/>
<g id="Group_2">
<path id="Vector_9" d="M137.462 5.13362C138.638 4.77735 139.302 3.53469 138.946 2.35806C138.59 1.18144 137.348 0.516408 136.173 0.872678C134.997 1.22895 134.332 2.47161 134.688 3.64823C135.044 4.82486 136.286 5.4899 137.462 5.13362Z" fill="#07012D"/>
<path id="Vector_10" d="M138.299 18.6503V16.7387C138.149 13.557 137.105 11.1047 135.384 9.41946V11.331V16.8393V18.7509V30.9749H138.299V28.7866C138.312 28.7992 138.312 28.7992 138.324 28.8118V26.9002V21.3919V19.4803C138.312 19.254 138.299 19.015 138.299 18.7761V18.6503Z" fill="#07012D"/>
</g>
<path id="Vector_11" d="M157.352 21.9956V22.4735C157.352 26.4475 155.128 28.271 151.81 28.271C148.454 28.271 146.267 26.3972 146.267 22.4735V20.587C146.28 20.5996 146.28 20.5996 146.293 20.6122V18.7006V13.1923V11.5323H158.961V8.86614H146.267V8.53916C146.117 5.35741 145.073 2.90507 143.352 1.21988V3.13144V8.63977V10.5513V22.4735C143.352 28.1453 146.795 30.9875 151.81 30.9875C156.787 30.9875 160.18 28.1453 160.18 22.4735V21.9956H157.352Z" fill="#0068FF"/>
<path id="Vector_12" d="M226.552 8.85356C222.82 8.85356 219.954 10.501 218.421 13.5696V11.9599V10.0483C218.408 9.82192 218.396 9.59555 218.396 9.3566V9.23084V7.31927C218.245 4.13753 217.202 1.68519 215.48 0V1.91156V7.41989V9.33145V30.9875H218.396V19.7319C218.396 19.6061 218.396 19.4929 218.408 19.3797L218.421 19.3923V19.0402C218.685 14.2361 221.701 11.57 226.113 11.57C230.775 11.57 233.829 14.4122 233.829 19.7319V30.9875H236.745V19.7319C236.758 12.3497 232.309 8.85356 226.552 8.85356Z" fill="#0068FF"/>
<g id="Group_3">
<path id="Vector_13" d="M9.19971 18.0844C9.18715 18.3611 9.17458 18.6377 9.17458 18.927V20.172C9.16201 20.411 9.14944 20.6499 9.14944 20.9014V21.0272V21.2284V23.0016C8.99862 26.3217 7.95547 28.8621 6.23364 30.6227C7.3522 30.1574 8.34508 29.4909 9.17458 28.6483C10.8964 26.9002 11.9521 24.3473 12.0904 21.0272C12.1029 20.7505 12.1155 20.4738 12.1155 20.1846V18.2227V18.1724V18.097V16.1099C12.2663 12.7899 13.3095 10.2369 15.0313 8.48883C13.9128 8.95415 12.9324 9.6081 12.1155 10.4507C10.3937 12.2114 9.35053 14.7643 9.19971 18.0844Z" fill="#0068FF"/>
<path id="Vector_14" d="M2.97864 10.4632C1.25681 12.2113 0.20109 14.7642 0.0628405 18.0843C0.0502724 18.361 0.0377042 18.6376 0.0377042 18.9269V20.1719C0.0251361 21.3541 0.0125681 22.5362 0 23.7184C0.590701 23.0896 1.4579 22.0332 2.11144 20.4989C2.3628 19.8952 2.94093 18.3987 2.99121 16.4242C2.99121 16.3111 2.99121 16.1979 2.99121 16.0973V16.0847C3.14202 12.7898 4.18518 10.2494 5.90701 8.51389C4.78844 8.9792 3.80813 9.63316 2.97864 10.4632Z" fill="#0068FF"/>
<path id="Vector_15" d="M19.1789 18.6125C18.9275 19.2162 18.3494 20.7127 18.2991 22.6872C18.2991 22.8004 18.2991 22.9136 18.2991 23.0142V23.0393C18.1483 26.3343 17.1051 28.8746 15.3833 30.6101C16.4893 30.1448 17.4822 29.4909 18.2991 28.6483C20.0209 26.9002 21.0766 24.3472 21.2149 21.0271C21.2275 20.7505 21.24 20.4738 21.24 20.1845V18.9395C21.2526 17.7574 21.2652 16.5752 21.2777 15.3931C20.687 16.0219 19.8198 17.0783 19.1789 18.6125Z" fill="#0068FF"/>
</g>
</g>
</svg>
